<svg width="28" height="28" viewBox="0 0 28 28" fill="none" xmlns="http://www.w3.org/2000/svg">
<path d="M25.6676 19.7398V23.2398C25.669 23.5647 25.6024 23.8864 25.4722 24.184C25.3421 24.4817 25.1511 24.749 24.9117 24.9687C24.6723 25.1882 24.3897 25.3555 24.0819 25.4596C23.774 25.5637 23.4479 25.6024 23.1243 25.5731C19.5343 25.183 16.0858 23.9562 13.056 21.9915C10.2371 20.2003 7.84721 17.8104 6.05598 14.9915C4.08429 11.9479 2.85726 8.48261 2.47431 4.87645C2.44516 4.55382 2.48351 4.22867 2.5869 3.92168C2.6903 3.61469 2.85648 3.33259 3.07488 3.09334C3.29327 2.8541 3.55909 2.66295 3.8554 2.53206C4.15172 2.40117 4.47204 2.33342 4.79598 2.33312H8.29598C8.86217 2.32754 9.41107 2.52805 9.84037 2.89724C10.2697 3.26643 10.5501 3.77913 10.6293 4.33979C10.777 5.45986 11.051 6.55963 11.446 7.61812C11.603 8.03569 11.6369 8.48952 11.5439 8.92581C11.4508 9.3621 11.2346 9.76258 10.921 10.0798L9.43931 11.5615C11.1001 14.4822 13.5185 16.9006 16.4393 18.5615L17.921 17.0798C18.2382 16.7661 18.6387 16.5499 19.0749 16.4569C19.5112 16.3638 19.9651 16.3979 20.3826 16.5548C21.4411 16.9497 22.541 17.2238 23.661 17.3715C24.2277 17.4514 24.7453 17.7369 25.1153 18.1735C25.4853 18.6102 25.6819 19.1677 25.6676 19.7398Z" stroke="#16384E" stroke-width="2" stroke-linecap="round" stroke-linejoin="round"/>
</svg>
