<svg width="25" height="24" viewBox="0 0 25 24" fill="none" xmlns="http://www.w3.org/2000/svg">
<path d="M22.4975 16.9201V19.9201C22.4987 20.1986 22.4416 20.4743 22.33 20.7294C22.2185 20.9846 22.0548 21.2137 21.8496 21.402C21.6444 21.5902 21.4021 21.7336 21.1383 21.8228C20.8744 21.912 20.5949 21.9452 20.3175 21.9201C17.2404 21.5857 14.2845 20.5342 11.6875 18.8501C9.27132 17.3148 7.22283 15.2663 5.68749 12.8501C3.99747 10.2413 2.94573 7.27109 2.61749 4.1801C2.5925 3.90356 2.62537 3.62486 2.71399 3.36172C2.80262 3.09859 2.94506 2.85679 3.13226 2.65172C3.31945 2.44665 3.5473 2.28281 3.80128 2.17062C4.05527 2.05843 4.32983 2.00036 4.60749 2.0001H7.60749C8.0928 1.99532 8.56328 2.16718 8.93125 2.48363C9.29922 2.80008 9.53957 3.23954 9.60749 3.7201C9.73411 4.68016 9.96894 5.62282 10.3075 6.5301C10.442 6.88802 10.4712 7.27701 10.3914 7.65098C10.3116 8.02494 10.1264 8.36821 9.85749 8.6401L8.58749 9.9101C10.0111 12.4136 12.084 14.4865 14.5875 15.9101L15.8575 14.6401C16.1294 14.3712 16.4727 14.1859 16.8466 14.1062C17.2206 14.0264 17.6096 14.0556 17.9675 14.1901C18.8748 14.5286 19.8175 14.7635 20.7775 14.8901C21.2633 14.9586 21.7069 15.2033 22.0241 15.5776C22.3412 15.9519 22.5097 16.4297 22.4975 16.9201Z" stroke="#16384E" stroke-width="2" stroke-linecap="round" stroke-linejoin="round"/>
</svg>
